{"title":"I Love You Rosa","uid":7446366,"size":576765952,"categoryP":"video","categoryS":"movies","magnet":"?xt=urn:btih:26a5302b21adbd33d3eea62c1f1928dec078c822&amp;dn=I+Love+You+Rosa&amp;tr=udp%3A%2F%2Ftracker.openbittorrent.com%3A80&amp;tr=udp%3A%2F%2Fopen.demonii.com%3A1337&amp;tr=udp%3A%2F%2Ftracker.coppersurfer.tk%3A6969&amp;tr=udp%3A%2F%2Fexodus.desync.com%3A6969","seeders":0,"leechers":3,"uploader":"doobsie101","files":1,"time":1342380243,"description":"Not my creation, but a good film non-the-less.\n\nGeneral\nComplete name                            : C:MediaFilms And MoviesFilmsI Love You RosaAni_Ohev_Otakh_Rosa_AKA_I_Love_You_Rosa_1972_VHSRip_Xvid.avi\nFormat                                   : AVI\nFormat/Info                              : Audio Video Interleave\nFile size                                : 550 MiB\nDuration                                 : 1h 18mn\nOverall bit rate                         : 981 Kbps\nWriting application                      : VirtualDubMod 1.5.4.1 (build 2178/release)\nWriting library                          : VirtualDubMod build 2178/release\n\nVideo\nID                                       : 0\nFormat                                   : MPEG-4 Visual\nFormat profile                           : Advanced Simple@L5\nFormat settings, BVOP                    : 1\nFormat settings, QPel                    : No\nFormat settings, GMC                     : No warppoints\nFormat settings, Matrix                  : Custom\nCodec ID                                 : XVID\nCodec ID/Hint                            : XviD\nDuration                                 : 1h 18mn\nBit rate                                 : 677 Kbps\nWidth                                    : 528 pixels\nHeight                                   : 400 pixels\nDisplay aspect ratio                     : 4:3\nFrame rate                               : 25.000 fps\nColor space                              : YUV\nChroma subsampling                       : 4:2:0\nBit depth                                : 8 bits\nScan type                                : Progressive\nCompression mode                         : Lossy\nBits/(Pixel*Frame)                       : 0.128\nStream size                              : 380 MiB (69%)\nWriting library                          : XviD 64\n\nAudio\nID                                       : 1\nFormat                                   : AC-3\nFormat/Info                              : Audio Coding 3\nMode extension                           : CM (complete main)\nFormat settings, Endianness              : Big\nCodec ID                                 : 2000\nDuration                                 : 1h 18mn\nBit rate mode                            : Constant\nBit rate                                 : 256 Kbps\nChannel(s)                               : 2 channels\nChannel positions                        : Front: L R\nSampling rate                            : 48.0 KHz\nBit depth                                : 16 bits\nCompression mode                         : Lossy\nStream size                              : 144 MiB (26%)\nAlignment                                : Split accros","torrent":{"xt":"urn:btih:26a5302b21adbd33d3eea62c1f1928dec078c822","amp;dn":"I+Love+You+Rosa","amp;tr":["udp%3A%2F%2Ftracker.openbittorrent.com%3A80","udp%3A%2F%2Fopen.demonii.com%3A1337","udp%3A%2F%2Ftracker.coppersurfer.tk%3A6969","udp%3A%2F%2Fexodus.desync.com%3A6969"],"infoHash":"26a5302b21adbd33d3eea62c1f1928dec078c822","infoHashBuffer":{"type":"Buffer","data":[38,165,48,43,33,173,189,51,211,238,166,44,31,25,40,222,192,120,200,34]},"announce":[],"urlList":[]}}